<svg
  xmlns="http://www.w3.org/2000/svg"
  viewBox="0 0 512 512"
  aria-hidden="true"
  focusable="false"
  role="img"
>
  <path
    fill="currentColor"
    d="M501.1 395.7L320.6 215.2c10.7-30.5 3.6-65.7-21.4-90.7
    -28.5-28.5-71.5-33.9-105.7-16.4l61.4 61.4
    c4.7 4.7 4.7 12.3 0 17l-28.3 28.3
    c-4.7 4.7-12.3 4.7-17 0l-61.4-61.4
    c-17.5 34.2-12.1 77.2 16.4 105.7
    25 25 60.2 32.1 90.7 21.4l180.5 180.5
    c13.6 13.6 35.7 13.6 49.3 0l16-16
    c13.6-13.6 13.6-35.7 0-49.3z"
  />
</svg>
